HIERARCHY
ROOT Hips
{
 OFFSET 0.000000 0.000000 0.000000
 CHANNELS 6 Xposition Yposition Zposition Yrotation Xrotation Zrotation
 JOINT Chest
 {
  OFFSET 0.000000 12.953391 -0.028419
  CHANNELS 3 Yrotation Xrotation Zrotation
  JOINT Chest2
  {
   OFFSET 0.000000 10.280254 0.051622
   CHANNELS 3 Yrotation Xrotation Zrotation
   JOINT Chest3
   {
    OFFSET 0.000000 9.287180 0.000000
    CHANNELS 3 Yrotation Xrotation Zrotation
    JOINT Chest4
    {
     OFFSET 0.000000 9.287180 0.000000
     CHANNELS 3 Yrotation Xrotation Zrotation
     JOINT Neck
     {
      OFFSET 0.000000 13.296264 0.000000
      CHANNELS 3 Yrotation Xrotation Zrotation
      JOINT Head
      {
       OFFSET 0.000000 8.959264 0.099003
       CHANNELS 3 Yrotation Xrotation Zrotation
       End Site
       {
        OFFSET 0.000000 17.121337 0.039303
       }
      }
     }
     JOINT RightCollar
     {
      OFFSET -3.193511 7.451388 0.000000
      CHANNELS 3 Yrotation Xrotation Zrotation
      JOINT RightShoulder
      {
       OFFSET -15.792092 0.000000 0.000000
       CHANNELS 3 Yrotation Xrotation Zrotation
       JOINT RightElbow
       {
        OFFSET -31.151839 0.000000 0.000000
        CHANNELS 3 Yrotation Xrotation Zrotation
        JOINT RightWrist
        {
         OFFSET -25.536298 0.000000 0.002321
         CHANNELS 3 Yrotation Xrotation Zrotation
         End Site
         {
          OFFSET -19.133213 0.000000 0.000000
         }
        }
       }
      }
     }
     JOINT LeftCollar
     {
      OFFSET 3.193511 7.451388 0.000000
      CHANNELS 3 Yrotation Xrotation Zrotation
      JOINT LeftShoulder
      {
       OFFSET 15.792092 0.000000 0.000000
       CHANNELS 3 Yrotation Xrotation Zrotation
       JOINT LeftElbow
       {
        OFFSET 31.151839 0.000000 0.000000
        CHANNELS 3 Yrotation Xrotation Zrotation
        JOINT LeftWrist
        {
         OFFSET 25.536298 0.000000 0.002321
         CHANNELS 3 Yrotation Xrotation Zrotation
         End Site
         {
          OFFSET 19.133213 0.000000 0.000000
         }
        }
       }
      }
     }
    }
   }
  }
 }
 JOINT RightHip
 {
  OFFSET -10.745749 0.139252 0.014209
  CHANNELS 3 Yrotation Xrotation Zrotation
  JOINT RightKnee
  {
   OFFSET 0.000000 -43.743899 -0.006071
   CHANNELS 3 Yrotation Xrotation Zrotation
   JOINT RightAnkle
   {
    OFFSET 0.000000 -43.214199 0.089931
    CHANNELS 3 Yrotation Xrotation Zrotation
    JOINT RightToe
    {
     OFFSET 0.000000 -9.699830 19.151588
     CHANNELS 3 Yrotation Xrotation Zrotation
     End Site
     {
      OFFSET 0.000000 -1.292898 4.893873
     }
    }
   }
  }
 }
 JOINT LeftHip
 {
  OFFSET 10.745749 0.139252 0.014209
  CHANNELS 3 Yrotation Xrotation Zrotation
  JOINT LeftKnee
  {
   OFFSET 0.000000 -43.743899 -0.006071
   CHANNELS 3 Yrotation Xrotation Zrotation
   JOINT LeftAnkle
   {
    OFFSET 0.000000 -43.214199 0.089931
    CHANNELS 3 Yrotation Xrotation Zrotation
    JOINT LeftToe
    {
     OFFSET 0.000000 -9.699830 19.151588
     CHANNELS 3 Yrotation Xrotation Zrotation
     End Site
     {
      OFFSET 0.000000 -1.292898 4.893873
     }
    }
   }
  }
 }
}
MOTION
Frames: 16
Frame Time: 0.016667
141.461741	66.390590	-5.066245	148.910328	14.697412	-20.084936	-2.712793	10.057130	-1.892351	-3.486537	14.621566	-3.170833	-4.055387	19.392417	-4.840155	-4.906235	22.901595	-5.891056	-21.256044	53.142856	-12.193029	-89.493190	65.919530	-64.255280	3.092838	18.185838	-0.388001	14.927201	-13.014024	41.461958	13.863314	8.068956	24.361960	24.145224	15.938534	34.414871	-4.342284	15.815580	-12.408299	-9.802148	2.023621	-56.338085	-2.575441	-2.215752	-46.263839	15.708785	-0.061692	-43.813791	-5.923998	-14.800001	3.277956	-6.124142	28.189323	0.187992	5.967215	31.486717	4.567707	4.678118	19.146935	4.453892	0.349738	-6.763543	2.035080	-0.583145	31.297788	1.621041	-21.740312	21.864793	-11.852645	-21.128676	17.023282	-9.370227
141.175557	66.654663	-3.856908	148.022365	14.526240	-20.101857	-2.713115	10.056892	-1.892559	-3.487205	14.621395	-3.171241	-4.055643	19.392453	-4.841064	-4.906609	22.901353	-5.892094	-21.258249	53.143427	-12.195114	-89.502462	65.919065	-64.262972	3.092428	18.185968	-0.388616	14.929604	-13.014241	41.461361	13.865987	8.069854	24.361201	24.147796	15.938980	34.415282	-4.342535	15.815455	-12.409421	-9.803339	2.024350	-56.340580	-2.576042	-2.216387	-46.266025	15.708284	-0.062123	-43.817355	-5.923790	-14.800211	3.278241	-6.124737	28.190999	0.187729	5.967424	31.488959	4.567698	4.677662	19.148494	4.454017	0.349772	-6.762790	2.034835	-0.583107	31.299222	1.621053	-21.740850	21.866128	-11.853477	-21.129284	17.024207	-9.370873
140.870452	66.915422	-2.651350	147.135377	14.354842	-20.115769	-2.713436	10.056656	-1.892768	-3.487874	14.621224	-3.171650	-4.055900	19.392491	-4.841978	-4.906982	22.901112	-5.893134	-21.260462	53.144011	-12.197208	-89.511826	65.918590	-64.270730	3.092020	18.186106	-0.389234	14.932021	-13.014452	41.460759	13.868682	8.070768	24.360436	24.150396	15.939433	34.415705	-4.342786	15.815332	-12.410549	-9.804535	2.025082	-56.343088	-2.576643	-2.217024	-46.268213	15.707786	-0.062553	-43.820945	-5.923580	-14.800421	3.278527	-6.125330	28.192693	0.187467	5.967648	31.491238	4.567700	4.677217	19.150071	4.454150	0.349805	-6.762032	2.034591	-0.583075	31.300673	1.621065	-21.741405	21.867478	-11.854326	-21.129908	17.025154	-9.371532
140.546497	67.172843	-1.449863	146.249346	14.183262	-20.126676	-2.713758	10.056419	-1.892978	-3.488543	14.621051	-3.172061	-4.056159	19.392526	-4.842893	-4.907355	22.900871	-5.894176	-21.262672	53.144591	-12.199304	-89.521195	65.918120	-64.278508	3.091611	18.186241	-0.389856	14.934446	-13.014666	41.460162	13.871388	8.071683	24.359670	24.153004	15.939888	34.416127	-4.343036	15.815204	-12.411679	-9.805733	2.025817	-56.345606	-2.577245	-2.217662	-46.270412	15.707284	-0.062990	-43.824536	-5.923372	-14.800631	3.278811	-6.125927	28.194388	0.187201	5.967858	31.493511	4.567692	4.676762	19.151652	4.454278	0.349838	-6.761276	2.034346	-0.583039	31.302129	1.621076	-21.741959	21.868835	-11.855175	-21.130525	17.026100	-9.372189
140.203764	67.426899	-0.252742	145.364254	14.011545	-20.134582	-2.714081	10.056177	-1.893189	-3.489216	14.620878	-3.172477	-4.056421	19.392562	-4.843810	-4.907733	22.900629	-5.895224	-21.264908	53.145175	-12.201411	-89.530646	65.917637	-64.286335	3.091201	18.186380	-0.390481	14.936889	-13.014878	41.459554	13.874107	8.072603	24.358896	24.155632	15.940343	34.416549	-4.343288	15.815077	-12.412814	-9.806941	2.026552	-56.348133	-2.577856	-2.218303	-46.272619	15.706778	-0.063427	-43.828152	-5.923163	-14.800843	3.279097	-6.126527	28.196100	0.186935	5.968070	31.495802	4.567686	4.676307	19.153242	4.454408	0.349875	-6.760513	2.034103	-0.583000	31.303586	1.621091	-21.742509	21.870194	-11.856022	-21.131142	17.027049	-9.372846
139.842330	67.677566	0.939721	144.480082	13.839737	-20.139496	-2.714408	10.055939	-1.893401	-3.489891	14.620703	-3.172894	-4.056685	19.392593	-4.844730	-4.908112	22.900387	-5.896280	-21.267150	53.145765	-12.203532	-89.540151	65.917155	-64.294225	3.090789	18.186522	-0.391112	14.939342	-13.015086	41.458950	13.876842	8.073531	24.358122	24.158271	15.940801	34.416978	-4.343540	15.814946	-12.413959	-9.808154	2.027289	-56.350679	-2.578472	-2.218948	-46.274844	15.706268	-0.063870	-43.831790	-5.922954	-14.801060	3.279383	-6.127125	28.197811	0.186670	5.968284	31.498105	4.567682	4.675853	19.154831	4.454538	0.349911	-6.759749	2.033859	-0.582966	31.305059	1.621103	-21.743075	21.871563	-11.856885	-21.131773	17.028007	-9.373518
139.462279	67.924820	2.127235	143.596810	13.667880	-20.141421	-2.714735	10.055697	-1.893615	-3.490571	14.620527	-3.173313	-4.056954	19.392627	-4.845651	-4.908499	22.900141	-5.897335	-21.269412	53.146346	-12.205651	-89.549688	65.916659	-64.302103	3.090372	18.186663	-0.391742	14.941797	-13.015297	41.458341	13.879581	8.074461	24.357344	24.160920	15.941257	34.417413	-4.343797	15.814820	-12.415102	-9.809379	2.028026	-56.353228	-2.579095	-2.219595	-46.277065	15.705748	-0.064317	-43.835424	-5.922744	-14.801276	3.279672	-6.127724	28.199532	0.186403	5.968505	31.500416	4.567682	4.675406	19.156437	4.454675	0.349949	-6.758980	2.033615	-0.582927	31.306528	1.621117	-21.743630	21.872924	-11.857737	-21.132396	17.028959	-9.374182
139.063695	68.168639	3.309511	142.714423	13.496022	-20.140367	-2.715064	10.055457	-1.893830	-3.491249	14.620351	-3.173735	-4.057221	19.392658	-4.846575	-4.908882	22.899898	-5.898398	-21.271670	53.146934	-12.207782	-89.559260	65.916173	-64.310051	3.089957	18.186806	-0.392380	14.944266	-13.015505	41.457733	13.882333	8.075396	24.356561	24.163575	15.941719	34.417844	-4.344050	15.814688	-12.416256	-9.810604	2.028765	-56.355790	-2.579717	-2.220243	-46.279301	15.705231	-0.064768	-43.839078	-5.922537	-14.801494	3.279958	-6.128328	28.201263	0.186133	5.968721	31.502742	4.567680	4.674954	19.158050	4.454806	0.349986	-6.758209	2.033370	-0.582893	31.308021	1.621127	-21.744205	21.874310	-11.858610	-21.133033	17.029936	-9.374860
138.646670	68.409001	4.486259	141.832899	13.324205	-20.136342	-2.715392	10.055216	-1.894045	-3.491930	14.620171	-3.174159	-4.057492	19.392690	-4.847498	-4.909269	22.899654	-5.899462	-21.273942	53.147524	-12.209919	-89.568885	65.915670	-64.318019	3.089540	18.186950	-0.393017	14.946746	-13.015712	41.457120	13.885102	8.076337	24.355779	24.166253	15.942177	34.418277	-4.344307	15.814558	-12.417412	-9.811838	2.029506	-56.358364	-2.580352	-2.220894	-46.281548	15.704703	-0.065217	-43.842747	-5.922330	-14.801717	3.280247	-6.128935	28.202998	0.185864	5.968929	31.505077	4.567674	4.674495	19.159665	4.454937	0.350027	-6.757432	2.033126	-0.582855	31.309509	1.621141	-21.744770	21.875692	-11.859476	-21.133664	17.030906	-9.375535
138.211299	68.645885	5.657194	140.952222	13.152474	-20.129350	-2.715723	10.054974	-1.894262	-3.492612	14.619994	-3.174587	-4.057763	19.392720	-4.848427	-4.909655	22.899409	-5.900531	-21.276220	53.148116	-12.212066	-89.578548	65.915171	-64.326035	3.089126	18.187098	-0.393660	14.949251	-13.015920	41.456506	13.887893	8.077283	24.354983	24.168951	15.942642	34.418707	-4.344562	15.814423	-12.418575	-9.813074	2.030252	-56.360949	-2.580984	-2.221546	-46.283809	15.704177	-0.065673	-43.846435	-5.922122	-14.801935	3.280533	-6.129546	28.204744	0.185591	5.969127	31.507413	4.567660	4.674028	19.161285	4.455064	0.350068	-6.756657	2.032883	-0.582814	31.311004	1.621157	-21.745327	21.877074	-11.860338	-21.134290	17.031877	-9.376209
137.757681	68.879270	6.822030	140.072371	12.980873	-20.119404	-2.716055	10.054730	-1.894478	-3.493300	14.619813	-3.175014	-4.058040	19.392750	-4.849355	-4.910050	22.899165	-5.901603	-21.278525	53.148712	-12.214220	-89.588299	65.914665	-64.334096	3.088703	18.187246	-0.394304	14.951738	-13.016123	41.455892	13.890669	8.078238	24.354199	24.171639	15.943111	34.419165	-4.344821	15.814295	-12.419739	-9.814321	2.030996	-56.363541	-2.581619	-2.222202	-46.286074	15.703654	-0.066128	-43.850139	-5.921910	-14.802157	3.280824	-6.130146	28.206495	0.185322	5.969365	31.509786	4.567673	4.673595	19.162924	4.455207	0.350109	-6.755878	2.032638	-0.582781	31.312509	1.621168	-21.745922	21.878481	-11.861235	-21.134946	17.032870	-9.376907
137.285921	69.109140	7.980482	139.193329	12.809446	-20.106512	-2.716389	10.054489	-1.894699	-3.493987	14.619633	-3.175448	-4.058317	19.392777	-4.850289	-4.910444	22.898917	-5.902683	-21.280823	53.149305	-12.216382	-89.598071	65.914149	-64.342199	3.088282	18.187394	-0.394956	14.954257	-13.016331	41.455272	13.893477	8.079190	24.353395	24.174353	15.943575	34.419593	-4.345079	15.814159	-12.420914	-9.815570	2.031742	-56.366150	-2.582265	-2.222860	-46.288346	15.703116	-0.066588	-43.853850	-5.921706	-14.802381	3.281112	-6.130764	28.208253	0.185047	5.969557	31.512139	4.567658	4.673122	19.164560	4.455337	0.350152	-6.755090	2.032395	-0.582740	31.314023	1.621181	-21.746484	21.879878	-11.862102	-21.135572	17.033849	-9.377580
136.796125	69.335475	9.132270	138.315076	12.638237	-20.090682	-2.716723	10.054244	-1.894918	-3.494676	14.619451	-3.175879	-4.058596	19.392806	-4.851222	-4.910838	22.898670	-5.903762	-21.283143	53.149902	-12.218551	-89.607903	65.913631	-64.350334	3.087862	18.187546	-0.395607	14.956784	-13.016530	41.454657	13.896299	8.080156	24.352600	24.177091	15.944042	34.420050	-4.345338	15.814025	-12.422088	-9.816832	2.032493	-56.368766	-2.582917	-2.223519	-46.290633	15.702573	-0.067053	-43.857578	-5.921498	-14.802607	3.281403	-6.131373	28.210027	0.184775	5.969770	31.514520	4.567656	4.672666	19.166205	4.455472	0.350196	-6.754305	2.032154	-0.582699	31.315543	1.621198	-21.747066	21.881289	-11.862990	-21.136216	17.034850	-9.378277
136.288408	69.558257	10.277111	137.437593	12.467288	-20.071927	-2.717059	10.053999	-1.895141	-3.495367	14.619268	-3.176317	-4.058876	19.392831	-4.852158	-4.911236	22.898424	-5.904849	-21.285462	53.150503	-12.220727	-89.617759	65.913116	-64.358504	3.087439	18.187701	-0.396263	14.959313	-13.016729	41.454032	13.899123	8.081123	24.351797	24.179818	15.944514	34.420498	-4.345598	15.813890	-12.423271	-9.818091	2.033241	-56.371394	-2.583563	-2.224180	-46.292931	15.702038	-0.067517	-43.861317	-5.921289	-14.802832	3.281693	-6.131984	28.211799	0.184501	5.969988	31.516910	4.567659	4.672216	19.167857	4.455609	0.350240	-6.753516	2.031910	-0.582664	31.317066	1.621210	-21.747656	21.882700	-11.863884	-21.136869	17.035845	-9.378976
135.762885	69.777472	11.414729	136.560862	12.296645	-20.050256	-2.717398	10.053754	-1.895363	-3.496062	14.619084	-3.176756	-4.059163	19.392859	-4.853096	-4.911640	22.898175	-5.905936	-21.287808	53.151100	-12.222913	-89.627686	65.912582	-64.366708	3.087012	18.187852	-0.396923	14.961851	-13.016935	41.453412	13.901956	8.082088	24.350987	24.182563	15.944984	34.420943	-4.345862	15.813756	-12.424458	-9.819362	2.033990	-56.374033	-2.584221	-2.224846	-46.295233	15.701491	-0.067986	-43.865077	-5.921081	-14.803058	3.281983	-6.132596	28.213578	0.184226	5.970205	31.519313	4.567659	4.671764	19.169519	4.455746	0.350285	-6.752723	2.031665	-0.582627	31.318597	1.621223	-21.748246	21.884117	-11.864780	-21.137519	17.036849	-9.379674
135.219676	69.993105	12.544846	135.684865	12.126349	-20.025681	-2.717737	10.053507	-1.895587	-3.496759	14.618898	-3.177196	-4.059450	19.392883	-4.854036	-4.912044	22.897925	-5.907031	-21.290149	53.151698	-12.225101	-89.637626	65.912052	-64.374928	3.086586	18.188009	-0.397586	14.964407	-13.017132	41.452780	13.904809	8.083067	24.350180	24.185330	15.945458	34.421400	-4.346127	15.813621	-12.425652	-9.820643	2.034740	-56.376684	-2.584889	-2.225515	-46.297544	15.700939	-0.068462	-43.868847	-5.920872	-14.803288	3.282277	-6.133212	28.215373	0.183951	5.970415	31.521719	4.567655	4.671307	19.171183	4.455884	0.350335	-6.751931	2.031423	-0.582584	31.320137	1.621241	-21.748832	21.885541	-11.865678	-21.138169	17.037858	-9.380377
